<?xml version="1.0" encoding="utf-8"?>
<!-- Generator: Adobe Illustrator 25.0.0, SVG Export Plug-In . SVG Version: 6.00 Build 0)  -->
<svg version="1.1" id="Layer_1" xmlns="http://www.w3.org/2000/svg" xmlns:xlink="http://www.w3.org/1999/xlink" x="0px" y="0px"
	 viewBox="0 0 398.7 36.3" style="enable-background:new 0 0 398.7 36.3;" xml:space="preserve">
<path d="M284.1,0L284.1,0l-7.2,0v36.2h33.1c3.6-1.5,5.6-4.1,6.3-7.1H284L284.1,0L284.1,0z"/>
<path d="M364,7.3L364,7.3h27.3c3.8-0.7,6.6-4.1,7.4-7.3h-42.1C357.4,3.2,360.2,6.5,364,7.3L364,7.3z"/>
<path d="M215.5,7.2L215.5,7.2c3.8-1.1,7-4,7.8-7.1h-40.1v21.4H216V29l-25.7,0c-4,1.1-7.4,3.8-9.2,7.3l2.1,0H223V14.3h-32.8V7.2
	H215.5L215.5,7.2z"/>
<polygon points="357.7,36.3 357.7,36.3 364.8,36.3 364.8,21.7 390.6,21.7 390.6,36.3 397.7,36.3 397.7,14.4 357.7,14.4 357.7,36.3 
	"/>
<path d="M98.9,7.3L98.9,7.3h27.6c3.8-0.7,6.7-4.1,7.5-7.3H91.4C92.2,3.2,95.1,6.5,98.9,7.3L98.9,7.3z"/>
<path d="M98.9,36.3L98.9,36.3h27.6c3.8-0.8,6.7-4.1,7.5-7.3H91.4C92.2,32.2,95.1,35.5,98.9,36.3L98.9,36.3z"/>
<path d="M0,0L0,0c0.8,3.2,3.6,6.5,7.5,7.3h11.6l0.6,0.2v28.7h7.3V7.5l0.7-0.2h11.6c3.9-1,6.6-4,7.4-7.2V0H0L0,0z"/>
<path d="M98.9,21.6h27.6c3.8-0.7,6.7-4.1,7.5-7.3H91.4C92.2,17.5,95.1,20.8,98.9,21.6L98.9,21.6z"/>
</svg>
